<?xml version="1.0" encoding="UTF-8" standalone="no"?>
<!-- Created with Inkscape (http://www.inkscape.org/) -->

<svg
   xmlns:dc="http://purl.org/dc/elements/1.1/"
   xmlns:cc="http://creativecommons.org/ns#"
   xmlns:rdf="http://www.w3.org/1999/02/22-rdf-syntax-ns#"
   xmlns:svg="http://www.w3.org/2000/svg"
   xmlns="http://www.w3.org/2000/svg"
   xmlns:sodipodi="http://sodipodi.sourceforge.net/DTD/sodipodi-0.dtd"
   xmlns:inkscape="http://www.inkscape.org/namespaces/inkscape"
   width="494.685"
   height="140"
   viewBox="0 0 130.88541 37.041668"
   version="1.1"
   id="svg8"
   inkscape:version="0.92.4 (f8dce91, 2019-08-02)"
   sodipodi:docname="logo.svg">
  <defs
     id="defs2" />
  <sodipodi:namedview
     id="base"
     pagecolor="#5c5c5c"
     bordercolor="#000000"
     borderopacity="1"
     inkscape:pageopacity="0"
     inkscape:pageshadow="2"
     inkscape:zoom="1.4"
     inkscape:cx="353.87909"
     inkscape:cy="142.40571"
     inkscape:document-units="px"
     inkscape:current-layer="layer2"
     showgrid="false"
     inkscape:pagecheckerboard="false"
     showguides="false"
     units="px"
     inkscape:window-width="1920"
     inkscape:window-height="1029"
     inkscape:window-x="0"
     inkscape:window-y="0"
     inkscape:window-maximized="1" />
  <metadata
     id="metadata5">
    <rdf:RDF>
      <cc:Work
         rdf:about="">
        <dc:format>image/svg+xml</dc:format>
        <dc:type
           rdf:resource="http://purl.org/dc/dcmitype/StillImage" />
        <dc:title></dc:title>
      </cc:Work>
    </rdf:RDF>
  </metadata>
  <g
     inkscape:groupmode="layer"
     id="layer2"
     inkscape:label="Layer 2"
     style="display:inline"
     transform="translate(0,-259.95833)">
    <path
       style="fill:#87ab3f;fill-opacity:1;stroke:none;stroke-width:0.24873422px;stroke-linecap:butt;stroke-linejoin:miter;stroke-opacity:1"
       d="m 0.39827055,288.13626 2.13570595,-0.0628 -0.062817,-8.91971 -2.19852051,2.76386 z"
       id="path4580"
       inkscape:connector-curvature="0" />
    <path
       style="fill:#97c83e;fill-opacity:1;stroke:none;stroke-width:0.29635724px;stroke-linecap:butt;stroke-linejoin:miter;stroke-opacity:1"
       d="m 4.7324989,288.10485 2.135706,-0.0892 -0.062817,-12.66225 -2.1985205,1.85062 z"
       id="path4580-6"
       inkscape:connector-curvature="0"
       sodipodi:nodetypes="ccccc" />
    <path
       style="fill:#97c93d;fill-opacity:0.99215686;stroke:none;stroke-width:0.34991354px;stroke-linecap:butt;stroke-linejoin:miter;stroke-opacity:1"
       d="M 9.0039109,292.43908 11.139617,292.31476 11.0768,274.66247 8.8782791,273.78758 Z"
       id="path4580-6-2"
       inkscape:connector-curvature="0"
       sodipodi:nodetypes="ccccc" />
    <path
       style="fill:#1691b6;fill-opacity:1;stroke:none;stroke-width:0.2564421px;stroke-linecap:butt;stroke-linejoin:miter;stroke-opacity:1"
       d="m 21.880961,275.91877 2.135706,-0.0668 -0.06282,-9.48109 -2.010076,2.56091 z"
       id="path4580-1"
       inkscape:connector-curvature="0"
       sodipodi:nodetypes="ccccc" />
    <path
       style="fill:#12a8e0;fill-opacity:1;stroke:none;stroke-width:0.19622874px;stroke-linecap:butt;stroke-linejoin:miter;stroke-opacity:1"
       d="m 17.483919,276.76677 2.198521,-0.73006 -0.06282,-5.55143 -2.072891,2.37889 z"
       id="path4580-1-2"
       inkscape:connector-curvature="0"
       sodipodi:nodetypes="ccccc" />
    <path
       style="fill:#68cbda;fill-opacity:1;stroke:none;stroke-width:0.24873422px;stroke-linecap:butt;stroke-linejoin:miter;stroke-opacity:1"
       d="m 13.275323,279.21655 2.261335,-1.82163 0.12563,-3.39201 -1.381928,1.57038 -1.193484,-0.50252 z"
       id="path4663"
       inkscape:connector-curvature="0"
       sodipodi:nodetypes="cccccc" />
    <path
       inkscape:connector-curvature="0"
       id="path4701"
       style="font-style:normal;font-variant:normal;font-weight:normal;font-stretch:normal;font-size:23.40494728px;line-height:1.25;font-family:aakar;-inkscape-font-specification:aakar;letter-spacing:0px;word-spacing:0px;fill:#000000;fill-opacity:1;stroke:none;stroke-width:0.5500735"
       d="m 27.819033,284.42362 v 0.38677 q -0.85949,0 -1.095849,0.27934 -0.408258,0.47272 -0.408258,1.37518 v 4.31894 q 0,0.27933 -1.826416,0.92395 -1.826416,0.62313 -3.394985,0.62313 -1.761954,0 -3.244575,-0.51569 -1.697493,-0.58016 -2.793342,-1.78344 -0.923952,-1.00991 -1.310722,-2.06278 -0.47272,-1.28924 -0.47272,-3.26606 0,-2.85781 1.95534,-4.94207 2.127237,-2.25616 5.393299,-2.25616 1.052875,0 1.976827,0.21487 0.923951,0.25785 1.869391,0.49421 0.343796,0 0.644617,-0.19339 0.300822,-0.21487 0.365283,-0.51569 h 0.47272 v 4.53381 h -0.322309 q -0.752054,-2.0198 -2.041289,-2.90078 -1.138823,-0.77354 -2.664418,-0.77354 -1.95534,0 -3.352011,1.3537 -1.847904,1.80492 -1.847904,5.43627 0,2.90078 1.504108,4.61976 1.525595,1.69749 4.06109,1.69749 1.138824,0 2.041289,-0.3438 0.902464,-0.36528 0.902464,-0.92395 v -3.48093 q 0,-1.26775 -0.365283,-1.59006 -0.365283,-0.32231 -1.525595,-0.32231 v -0.38677 z" />
    <path
       inkscape:connector-curvature="0"
       id="path4703"
       style="font-style:normal;font-variant:normal;font-weight:normal;font-stretch:normal;font-size:23.40494728px;line-height:1.25;font-family:aakar;-inkscape-font-specification:aakar;letter-spacing:0px;word-spacing:0px;fill:#000000;fill-opacity:1;stroke:none;stroke-width:0.5500735"
       d="m 34.415618,277.80555 v 0.40826 q -1.160312,0 -1.590057,0.36528 -0.408257,0.3438 -0.408257,1.56857 v 10.16347 q 0,0.60164 0.386771,0.75205 0.38677,0.12893 1.78344,0.12893 2.728881,0 3.652833,-0.38677 1.310722,-0.53719 2.170212,-2.51401 h 0.537181 l -1.031388,3.73878 H 28.356214 v -0.40826 q 1.074362,0 1.461133,-0.36528 0.408257,-0.38677 0.408257,-1.56857 v -9.54034 q 0,-1.22477 -0.38677,-1.56857 -0.386771,-0.36528 -1.48262,-0.36528 v -0.40826 z" />
    <path
       inkscape:connector-curvature="0"
       id="path4705"
       style="font-style:normal;font-variant:normal;font-weight:normal;font-stretch:normal;font-size:23.40494728px;line-height:1.25;font-family:aakar;-inkscape-font-specification:aakar;letter-spacing:0px;word-spacing:0px;fill:#000000;fill-opacity:1;stroke:none;stroke-width:0.5500735"
       d="m 41.592359,292.03011 v -0.40826 q 1.203286,0 1.547081,-0.38677 0.343797,-0.38677 0.343797,-1.54708 v -9.54034 q 0,-1.22477 -0.343797,-1.56857 -0.322307,-0.36528 -1.547081,-0.36528 v -0.40826 h 5.801557 q 3.975141,0 6.209814,1.76196 2.363598,1.86939 2.363598,5.39329 0,2.72889 -1.654518,4.59828 -2.1917,2.47103 -6.618072,2.47103 z m 4.082577,-12.59153 v 10.91552 q 0,0.53719 0.257847,0.70908 0.257847,0.1719 1.031388,0.1719 1.396671,0 2.320623,-0.21487 1.847903,-0.42975 2.922266,-1.63303 1.418158,-1.56857 1.418158,-4.40489 0,-1.48262 -0.451233,-2.6859 -0.451232,-1.22478 -1.547081,-2.1917 -0.85949,-0.77354 -1.826416,-1.09585 -1.203287,-0.40826 -3.115652,-0.40826 -0.666104,0 -0.880977,0.25785 -0.128923,0.15041 -0.128923,0.58015 z" />
    <path
       inkscape:connector-curvature="0"
       id="path4707"
       style="font-style:normal;font-variant:normal;font-weight:normal;font-stretch:normal;font-size:23.40494728px;line-height:1.25;font-family:aakar;-inkscape-font-specification:aakar;letter-spacing:0px;word-spacing:0px;fill:#000000;fill-opacity:1;stroke:none;stroke-width:0.5500735"
       d="m 70.456532,287.06656 h -0.494209 q -0.171897,-1.31073 -0.644616,-1.67601 -0.451228,-0.36528 -1.718978,-0.36528 l -3.115654,-0.043 v 4.70571 q 0,1.20329 0.386775,1.56857 0.386766,0.36528 1.568572,0.36528 v 0.40826 h -6.016434 v -0.40826 q 1.181799,0 1.525595,-0.40825 0.343796,-0.40826 0.343796,-1.76196 v -9.30398 q 0,-1.22477 -0.386771,-1.56857 -0.38677,-0.36528 -1.48262,-0.36528 v -0.40826 h 11.409729 l 0.06449,3.07268 h -0.537181 q -0.236359,-1.41816 -0.859494,-1.82642 -0.601643,-0.42974 -2.406566,-0.42974 H 65.1707 q -0.429747,0 -0.558672,0.12892 -0.128925,0.12892 -0.128925,0.60164 v 4.77017 h 3.115654 q 1.310722,0 1.740469,-0.38677 0.451228,-0.40826 0.623125,-1.65452 h 0.494209 z m 0,0 h -0.494209 q -0.171897,-1.31073 -0.644616,-1.67601 -0.451228,-0.36528 -1.718978,-0.36528 h -3.115654 v 4.66273 q 0,1.20329 0.386775,1.56857 0.386766,0.36528 1.568572,0.36528 v 0.40826 h -6.016434 v -0.40826 q 1.181799,0 1.525595,-0.40826 0.343796,-0.40825 0.343796,-1.76195 v -9.30398 q 0,-1.22477 -0.386771,-1.56857 -0.38677,-0.36528 -1.48262,-0.36528 v -0.40826 h 11.409729 v 3.07268 h -0.472719 q -0.236359,-1.41816 -0.859494,-1.82642 -0.601644,-0.42974 -2.406566,-0.42974 h -2.922266 q -0.429747,0 -0.558672,0.12892 -0.128925,0.12892 -0.128925,0.60164 v 4.77017 h 3.115654 q 1.310722,0 1.740469,-0.38677 0.451228,-0.40826 0.623125,-1.65452 h 0.494209 z" />
    <path
       inkscape:connector-curvature="0"
       id="path4709"
       style="font-style:normal;font-variant:normal;font-weight:normal;font-stretch:normal;font-size:23.40494728px;line-height:1.25;font-family:aakar;-inkscape-font-specification:aakar;letter-spacing:0px;word-spacing:0px;fill:#000000;fill-opacity:1;stroke:none;stroke-width:0.5500735"
       d="m 82.403438,290.95575 v 0.30082 q -0.838004,0.21487 -1.547082,0.45123 -0.171897,0.0645 -1.439647,0.51569 l -0.04296,-0.043 v -1.78344 l -0.923947,0.92395 q -0.408256,0.40826 -1.03139,0.66611 -0.601644,0.25784 -1.224769,0.25784 -0.923957,0 -1.611544,-0.53718 -0.945438,-0.73056 -0.945438,-2.25616 v -5.41478 q 0,-0.85949 -0.408266,-1.16032 -0.300822,-0.21487 -0.923947,-0.21487 v -0.30082 h 3.137135 v 7.00484 q 0,0.49421 0.25785,0.92396 0.429747,0.70907 1.353694,0.70907 0.5157,0 0.923957,-0.17189 0.429737,-0.19339 0.945437,-0.60165 0.150406,-0.12892 0.23636,-0.36528 0.107434,-0.25785 0.107434,-0.73057 v -5.0495 q 0,-0.75205 -0.214869,-0.98841 -0.322312,-0.36529 -1.375184,-0.36529 v -0.36528 h 3.394985 v 7.37013 q 0,0.68759 0.171897,0.90246 0.25785,0.32231 1.160306,0.32231 z" />
    <path
       inkscape:connector-curvature="0"
       id="path4711"
       style="font-style:normal;font-variant:normal;font-weight:normal;font-stretch:normal;font-size:23.40494728px;line-height:1.25;font-family:aakar;-inkscape-font-specification:aakar;letter-spacing:0px;word-spacing:0px;fill:#000000;fill-opacity:1;stroke:none;stroke-width:0.5500735"
       d="m 84.573654,290.09626 v -5.32884 q 0,-0.90247 -0.23636,-1.1818 -0.150406,-0.19338 -0.515691,-0.19338 -0.451237,0 -0.623134,0.0859 v -0.36529 q 1.590063,-0.45123 2.965247,-0.96692 l 0.150407,0.043 v 1.69749 q 1.0099,-0.94544 1.482619,-1.24626 0.77354,-0.4942 1.654516,-0.4942 0.966928,0 1.611544,0.60164 0.902465,0.838 0.902465,2.62144 v 4.92058 q 0,0.77354 0.279332,1.09585 0.27934,0.32231 1.031391,0.32231 v 0.32231 h -4.469348 v -0.32231 q 0.687597,0 0.966928,-0.27933 0.386766,-0.40826 0.386766,-1.5256 v -4.49083 q 0,-1.03139 -0.365275,-1.54708 -0.365285,-0.53719 -1.289241,-0.53719 -0.4942,0 -0.98841,0.30083 -0.494209,0.30082 -1.138825,0.92395 v 6.03791 q 0,0.55867 0.300822,0.83801 0.322303,0.27933 1.117335,0.27933 v 0.32231 H 83.24145 v -0.32231 q 0.75205,0 1.031382,-0.32231 0.300822,-0.34379 0.300822,-1.28923 z" />
    <path
       inkscape:connector-curvature="0"
       id="path4713"
       style="font-style:normal;font-variant:normal;font-weight:normal;font-stretch:normal;font-size:23.40494728px;line-height:1.25;font-family:aakar;-inkscape-font-specification:aakar;letter-spacing:0px;word-spacing:0px;fill:#000000;fill-opacity:1;stroke:none;stroke-width:0.5500735"
       d="m 100.90396,289.83841 v -4.94207 q -0.10743,-1.03139 -0.75205,-1.59005 -0.644614,-0.55867 -1.461127,-0.55867 -1.052881,0 -1.783441,0.88098 -0.880983,1.07436 -0.880983,3.09416 0,2.21319 0.945436,3.39498 0.816523,1.0099 2.01981,1.0099 0.709078,0 1.246255,-0.34379 0.53719,-0.36528 0.6661,-0.94544 z m 3.24458,0.94544 v 0.34379 l -3.15863,1.11734 -0.0859,-0.0645 v -1.31072 q -0.55866,0.73056 -1.289226,1.05287 -0.709079,0.32231 -1.525591,0.32231 -1.78344,0 -2.857803,-1.31072 -1.052881,-1.31072 -1.052881,-3.50242 0,-2.12724 1.310722,-3.69581 1.332211,-1.59006 3.137143,-1.59006 0.709078,0 1.203278,0.21488 0.494208,0.19338 1.074358,0.70908 v -3.35201 q 0,-0.62313 -0.10743,-0.79503 -0.19339,-0.30082 -0.838003,-0.30082 l -0.51569,0.0215 v -0.3438 q 1.095853,-0.27933 1.654513,-0.45123 0.58016,-0.1719 1.50411,-0.49421 l 0.10744,0.043 v 12.18328 q 0,0.75205 0.17189,0.92395 0.25785,0.27933 1.26775,0.27933 z" />
    <path
       inkscape:connector-curvature="0"
       id="path4715"
       style="font-style:normal;font-variant:normal;font-weight:normal;font-stretch:normal;font-size:23.40494728px;line-height:1.25;font-family:aakar;-inkscape-font-specification:aakar;letter-spacing:0px;word-spacing:0px;fill:#000000;fill-opacity:1;stroke:none;stroke-width:0.5500735"
       d="m 104.68573,292.03011 v -0.32231 q 1.05287,0 1.37517,-0.32231 0.32231,-0.32231 0.32231,-1.54708 v -4.98504 q 0,-0.838 -0.23636,-1.11734 -0.1504,-0.1719 -0.51569,-0.1719 -0.21487,0 -0.3438,0.0215 -0.10743,0 -0.51569,0.0645 v -0.32231 q 1.0099,-0.32231 1.65452,-0.55867 1.11734,-0.42975 1.676,-0.62313 l 0.0859,0.0645 v 7.62797 q 0,1.13883 0.25784,1.50411 0.27934,0.36528 1.33221,0.36528 v 0.32231 z m 1.3322,-13.57994 q 0,-0.38677 0.23636,-0.68759 0.32231,-0.40826 0.838,-0.40826 0.47272,0 0.79503,0.32231 0.32231,0.32231 0.32231,0.77354 0,0.47272 -0.32231,0.79503 -0.30082,0.30082 -0.79503,0.30082 -0.51569,0 -0.79503,-0.36529 -0.27933,-0.36528 -0.27933,-0.73056 z" />
    <path
       inkscape:connector-curvature="0"
       id="path4717"
       style="font-style:normal;font-variant:normal;font-weight:normal;font-stretch:normal;font-size:23.40494728px;line-height:1.25;font-family:aakar;-inkscape-font-specification:aakar;letter-spacing:0px;word-spacing:0px;fill:#000000;fill-opacity:1;stroke:none;stroke-width:0.5500735"
       d="m 112.03436,290.09626 v -5.32884 q 0,-0.90247 -0.23636,-1.1818 -0.15041,-0.19338 -0.51569,-0.19338 -0.45123,0 -0.62313,0.0859 v -0.36529 q 1.59006,-0.45123 2.96524,-0.96692 l 0.15041,0.043 v 1.69749 q 1.0099,-0.94544 1.48262,-1.24626 0.77354,-0.4942 1.65452,-0.4942 0.96692,0 1.61155,0.60164 0.90245,0.838 0.90245,2.62144 v 4.92058 q 0,0.77354 0.27934,1.09585 0.27933,0.32231 1.03138,0.32231 v 0.32231 h -4.46934 v -0.32231 q 0.68759,0 0.96692,-0.27933 0.38678,-0.40826 0.38678,-1.5256 v -4.49083 q 0,-1.03139 -0.36528,-1.54708 -0.36529,-0.53719 -1.28925,-0.53719 -0.4942,0 -0.9884,0.30083 -0.49421,0.30082 -1.13883,0.92395 v 6.03791 q 0,0.55867 0.30082,0.83801 0.32231,0.27933 1.11734,0.27933 v 0.32231 h -4.55529 v -0.32231 q 0.75205,0 1.03138,-0.32231 0.30082,-0.34379 0.30082,-1.28923 z" />
    <path
       inkscape:connector-curvature="0"
       id="path4719"
       style="font-style:normal;font-variant:normal;font-weight:normal;font-stretch:normal;font-size:23.40494728px;line-height:1.25;font-family:aakar;-inkscape-font-specification:aakar;letter-spacing:0px;word-spacing:0px;fill:#000000;fill-opacity:1;stroke:none;stroke-width:0.5500735"
       d="m 123.16475,293.96396 q 0,0.60164 0.6876,1.0099 0.85948,0.5157 2.53549,0.5157 1.8479,0 2.90077,-0.60165 1.07437,-0.58015 1.07437,-1.48262 0,-0.6661 -0.64462,-0.85949 -0.62312,-0.19338 -1.99831,-0.19338 -1.63303,0 -2.10575,-0.043 -0.47272,-0.043 -1.39668,-0.23636 -0.47272,0.55866 -0.62312,0.77354 -0.42975,0.60164 -0.42975,1.11733 z m 1.16032,-9.28249 q 0,1.50411 0.47272,2.44955 0.58015,1.16031 1.76195,1.16031 0.73056,0 1.13882,-0.53718 0.42975,-0.55867 0.42975,-1.5256 0,-1.46113 -0.66611,-2.53549 -0.58015,-0.94544 -1.52559,-0.94544 -0.6876,0 -1.09585,0.40826 -0.51569,0.4942 -0.51569,1.52559 z m 6.83294,-0.98841 h -1.78344 q 0.21487,0.4942 0.30082,0.88097 0.10743,0.38677 0.10743,1.09585 0,1.56857 -1.24626,2.44955 -0.98841,0.70908 -2.17021,0.70908 l -1.16031,-0.10744 q -0.32231,0.043 -0.81651,0.53718 -0.47272,0.49421 -0.47272,0.81652 0,0.32231 0.4942,0.45123 0.5157,0.12892 1.1818,0.12892 l 2.77186,0.12893 q 1.1603,0 1.82641,0.55867 0.77354,0.6661 0.77354,1.74046 0,1.65452 -2.0198,2.72888 -1.69749,0.90247 -3.48093,0.90247 -1.65452,0 -2.72889,-0.60164 -1.07436,-0.60165 -1.07436,-1.48262 0,-0.64462 0.64463,-1.37519 0.51569,-0.58015 1.46112,-1.24626 -0.64461,-0.32231 -0.79503,-0.42974 -0.34379,-0.27934 -0.34379,-0.70908 0,-0.3438 0.23636,-0.66611 0.38677,-0.53718 1.67601,-1.676 -1.99831,-0.88098 -1.99831,-2.79334 0,-1.76196 1.22476,-2.75037 1.05288,-0.83801 2.47104,-0.83801 0.4942,0 0.92395,0.12893 0.45124,0.10743 1.16032,0.36528 0.3223,0.12893 0.60164,0.1719 0.27933,0.043 0.58015,0.043 h 1.65452 z" />
    <path
       style="fill:#97c83e;fill-opacity:1;stroke:none;stroke-width:0.24873422px;stroke-linecap:butt;stroke-linejoin:miter;stroke-opacity:1"
       d="m 3.224941,275.88736 4.9623764,-4.39704 5.3392656,2.32415 10.804158,-10.61572 0.753779,0.87941 1.067851,-3.89452 -4.082967,0.94222 0.942224,0.94223 -9.736307,9.86193 -5.15082,-2.32415 z"
       id="path24"
       inkscape:connector-curvature="0"
       sodipodi:nodetypes="ccccccccccc" />
  </g>
</svg>
