<?xml version="1.0" encoding="UTF-8" standalone="no"?>
<!-- Created with Inkscape (http://www.inkscape.org/) -->

<svg
   xmlns:dc="http://purl.org/dc/elements/1.1/"
   xmlns:cc="http://creativecommons.org/ns#"
   xmlns:rdf="http://www.w3.org/1999/02/22-rdf-syntax-ns#"
   xmlns:svg="http://www.w3.org/2000/svg"
   xmlns="http://www.w3.org/2000/svg"
   xmlns:sodipodi="http://sodipodi.sourceforge.net/DTD/sodipodi-0.dtd"
   xmlns:inkscape="http://www.inkscape.org/namespaces/inkscape"
   width="70"
   height="70"
   viewBox="0 0 18.520832 18.520834"
   version="1.1"
   id="svg8"
   inkscape:version="0.92.3 (2405546, 2018-03-11)"
   sodipodi:docname="step3.svg">
  <defs
     id="defs2" />
  <sodipodi:namedview
     id="base"
     pagecolor="#5c5c5c"
     bordercolor="#000000"
     borderopacity="1"
     inkscape:pageopacity="0"
     inkscape:pageshadow="2"
     inkscape:zoom="7.919596"
     inkscape:cx="-2.3316324"
     inkscape:cy="36.372534"
     inkscape:document-units="px"
     inkscape:current-layer="layer1"
     showgrid="false"
     units="px"
     inkscape:pagecheckerboard="false"
     inkscape:window-width="1920"
     inkscape:window-height="1029"
     inkscape:window-x="0"
     inkscape:window-y="0"
     inkscape:window-maximized="1" />
  <metadata
     id="metadata5">
    <rdf:RDF>
      <cc:Work
         rdf:about="">
        <dc:format>image/svg+xml</dc:format>
        <dc:type
           rdf:resource="http://purl.org/dc/dcmitype/StillImage" />
        <dc:title />
      </cc:Work>
    </rdf:RDF>
  </metadata>
  <g
     inkscape:label="Layer 1"
     inkscape:groupmode="layer"
     id="layer1"
     transform="translate(0,-278.47915)">
    <path
       style="color:#000000;font-style:normal;font-variant:normal;font-weight:normal;font-stretch:normal;font-size:medium;line-height:normal;font-family:sans-serif;font-variant-ligatures:normal;font-variant-position:normal;font-variant-caps:normal;font-variant-numeric:normal;font-variant-alternates:normal;font-feature-settings:normal;text-indent:0;text-align:start;text-decoration:none;text-decoration-line:none;text-decoration-style:solid;text-decoration-color:#000000;letter-spacing:normal;word-spacing:normal;text-transform:none;writing-mode:lr-tb;direction:ltr;text-orientation:mixed;dominant-baseline:auto;baseline-shift:baseline;text-anchor:start;white-space:normal;shape-padding:0;clip-rule:nonzero;display:inline;overflow:visible;visibility:visible;opacity:0.89761092;isolation:auto;mix-blend-mode:normal;color-interpolation:sRGB;color-interpolation-filters:linearRGB;solid-color:#000000;solid-opacity:1;vector-effect:none;fill:#1d1d1d;fill-opacity:1;fill-rule:nonzero;stroke:none;stroke-width:3.99999976;stroke-linecap:round;stroke-linejoin:round;stroke-miterlimit:4;stroke-dasharray:none;stroke-dashoffset:0;stroke-opacity:1;paint-order:markers fill stroke;color-rendering:auto;image-rendering:auto;shape-rendering:auto;text-rendering:auto;enable-background:accumulate"
       d="M 33.492188 -0.001953125 C 15.019612 -0.001953125 0 15.015727 0 33.488281 C 0 37.604697 0.74965017 41.54791 2.1132812 45.193359 C -0.63029033 58.713171 -2.0078865 57.797995 12.289062 59.396484 C 18.067031 64.133017 25.452309 66.980469 33.492188 66.980469 C 51.964764 66.980469 66.982422 51.960874 66.982422 33.488281 C 66.982422 15.015727 51.964764 -0.001953125 33.492188 -0.001953125 z "
       transform="matrix(0.26458333,0,0,0.26458333,0,278.47915)"
       id="path826" />
    <path
       inkscape:connector-curvature="0"
       id="path1017"
       style="font-style:normal;font-variant:normal;font-weight:bold;font-stretch:normal;font-size:8.59334373px;line-height:1.25;font-family:'DejaVu Sans';-inkscape-font-specification:'DejaVu Sans Bold';letter-spacing:0px;word-spacing:0px;fill:#ffffff;fill-opacity:1;stroke:none;stroke-width:0.21483357"
       d="m 9.9288891,287.0905 q 0.6335909,0.16364 0.9608769,0.57065 0.331481,0.40281 0.331481,1.02801 0,0.93151 -0.713315,1.41824 -0.7133139,0.48254 -2.0811999,0.48254 -0.482536,0 -0.969269,-0.0797 -0.4825362,-0.0755 -0.9566806,-0.23077 v -1.24624 q 0.4531646,0.22659 0.8979376,0.34407 0.448968,0.11329 0.881153,0.11329 0.641983,0 0.981857,-0.22238 0.344069,-0.22239 0.344069,-0.63779 0,-0.42799 -0.352461,-0.64618 -0.348266,-0.22238 -1.032208,-0.22238 h -0.64618 v -1.04061 h 0.679747 q 0.608416,0 0.906329,-0.18881 0.297914,-0.19302 0.297914,-0.58324 0,-0.36086 -0.289522,-0.55807 -0.289521,-0.19721 -0.818213,-0.19721 -0.390226,0 -0.788843,0.0881 -0.398617,0.0881 -0.7930376,0.26015 v -1.18327 q 0.4783406,-0.13427 0.9482886,-0.2014 0.469949,-0.0671 0.923113,-0.0671 1.221027,0 1.8252469,0.40282 0.608415,0.39861 0.608415,1.20424 0,0.54967 -0.289522,0.90213 -0.289522,0.34827 -0.8559769,0.49093 z" />
    <text
       xml:space="preserve"
       style="font-style:normal;font-weight:normal;font-size:10.58333302px;line-height:1.25;font-family:sans-serif;letter-spacing:0px;word-spacing:0px;fill:#000000;fill-opacity:1;stroke:none;stroke-width:0.26458332"
       x="4.8108516"
       y="291.25369"
       id="text836"><tspan
         sodipodi:role="line"
         id="tspan834"
         x="4.8108516"
         y="300.61746"
         style="stroke-width:0.26458332" /></text>
  </g>
</svg>
